<svg xmlns="http://www.w3.org/2000/svg" xmlns:xlink="http://www.w3.org/1999/xlink" width="1200" height="157" viewBox="0 0 1200 157">
  <defs>
    <clipPath id="clip-path">
      <rect id="Rectangle_2" data-name="Rectangle 2" width="1200" height="157" fill="#24c48d"/>
    </clipPath>
    <clipPath id="clip-path-2">
      <rect id="Rectangle_6" data-name="Rectangle 6" width="382.116" height="1200" fill="none"/>
    </clipPath>
  </defs>
  <g id="Mask_Group_1" data-name="Mask Group 1" clip-path="url(#clip-path)">
    <g id="Group_3" data-name="Group 3" transform="translate(1200 -127.036) rotate(90)">
      <rect id="Rectangle_5" data-name="Rectangle 5" width="382.115" height="1200" transform="translate(0 0)" fill="#ffa200"/>
      <g id="Group_2" data-name="Group 2">
        <g id="Group_1" data-name="Group 1" clip-path="url(#clip-path-2)">
          <path id="Path_1" data-name="Path 1" d="M23.7,104.751c-1.152-14.793,10.77-52.615,16.5-62.19,8.6-14.365,16.75,1.284,25.98,5.312,2.367-25.409,10.482-10.448,19.4-13.962,7.837-3.094,9.525-13.253,19.414-7.57,5.463,3.139,10.213,15.813,16.1,14.834,7.841-1.3,16.837-23.489,22.954-31.291.642-.815,1.279-1.6,1.916-2.4-2.435-3.22-6.389-4.37-11.731-2.205-15.477,6.257-11.822,15.976-29.089,5.666C84.542-1.359,54.84-7.4,35.3,15.4,13.929,40.315,18.484,86.6,8.425,124.188,2.517,146.266-7.66,157.676,9.495,174.479c.148.143.3.273.447.412,6.226-5.083,13.188-8.671,16.5-12.2,20.612-21.935-.682-31.584-2.734-57.943" transform="translate(76.067 227.835)" fill="#0f1e6b"/>
          <path id="Path_2" data-name="Path 2" d="M41.735,81.318C29.455,99.16,13.885,90.873,0,82.137a88.619,88.619,0,0,0,.824,9.49c4.752,35.522,16.078,42.012,33.345,37.479,13.785-3.616,15.871-8.234,19.657-30.781,2.937-17.464,9.383-26.733,12.8-42.142,2.994-13.493-.078-18.711-.517-32.816C65.635,8.251,70.8,7.159,63.573.869,59.611-2.588,46.414,4.831,38.154,13.237c8.578,19.2,13.876,53.124,3.581,68.081" transform="translate(8.375 179.241)" fill="#fff"/>
          <path id="Path_3" data-name="Path 3" d="M297.656,214.076A31.51,31.51,0,0,0,308.236,218V98.663c-4.269.016-8.549-.2-12.781.033-21.91,1.19-45.163,9.441-65.951,23.37-11.208,7.5-29.671,24.251-37.694-5.89-6.435-24.173,20.415-35.608,29.868-43.6,14.137-11.948,32.519-19.942,42.592-44.458,12.9-31.393,3.585-33.256-11.657-21.336-11.805,9.229-15.1,6.416-26.965,7.488-13.112,1.194-15,9.474-26.664,19.131-17.995,14.887-34.315,28.552-50.827,49.093-.639.795-1.277,1.582-1.916,2.4-6.118,7.8-15.113,29.995-22.954,31.291-5.891.978-10.641-11.7-16.1-14.834-9.889-5.683-11.577,4.476-19.414,7.57-8.919,3.514-17.033-11.447-19.4,13.962-9.228-4.028-17.379-19.677-25.978-5.312-5.728,9.576-17.65,47.4-16.5,62.19,2.05,26.358,23.346,36.007,2.734,57.943-3.31,3.526-10.27,7.113-16.5,12.2C4.117,256.43-2.687,265.439,1.055,279.972c4.733,18.385,32.019,23.713,40.974,31.3,12.21,10.358,25.148,32.905,39.069,30.056,13.527-2.764,20.239-11.072,34.751-2.972,17.995,10.04,34.836,21.377,53.993,16.9,26.376-6.168,4.047-27.7-8.951-38.779-3.754-3.2-7.727-6.726-11.871-10.383.944,11.626-.629,16.983-15.464,12.046-12.267-4.081-18.893-24.292-32.5-27.581-15.09-3.648-42.192,16.506-53.233-10.509-15.795-38.641,15.117-95.344,33.777-100.9,18.787-5.593,18.461,18.581,32.032,28.674,11.466,8.528,25.444-8.051,31.848,17.451a23.2,23.2,0,0,1-.316,10.3c4.673,9.7,7.782,22.5,12.983,31.8,5.575,9.971,22.556,33.875,29.8,25.682,7.392-8.361-5.372-30.443,9.209-45.75,23.854-20.411,46.4,40.928,53.552,49.562,6.435,7.758,13.635,11.646,19.992,18.845,3.191,3.616,5.535,12.564,8.938,15.014,2.126,1.529,4.208,3.269,6.34,4.749,3.862,2.682,7.657,1.728,10.943-2.894,1.755-2.479,2.844-6.009,4.424-8.585,1.7-2.756,3.056-4,3.022-8.964-.028-4.028-1.1-7.815-1.107-11.993-.006-2.87.282-5.854.182-8.715-.256-7.476-1.821-16.742-4.608-22.2-2.793-5.479-7.358-7.651-11.217-7.517-6.245.224-12.519,2.858-18.681,4.574l-.483-.1c-6.727-1.476-5.726.4-8.345-3.909,1.228.567-3.3-3.322-1.8-2.752-11.892-18.275-11.077-81.639,7.471-79.768,10.9,1.092,21.478,24.915,31.88,31.413M240.87,191.823c.341,10.8-2.528,16.758-1.722,28.1.741,10.464,10.31,25.164-1.618,27.394-9.84,1.839-8.172-18.9-12.362-28.519-6.3-14.455-14.4-14.353-23.611-13.889-7.888.408-24.811,11.394-30.675-3.485-8.889-22.563,7.615-33.839,15.771-36.492,8.62-2.817,12.309-9.633,20.356-14.72,13.207-8.34,32.97,13.456,33.859,41.608" transform="translate(73.88 152.83)" fill="#fff"/>
          <path id="Path_4" data-name="Path 4" d="M9.346,3.148c-22.755,21.3,1.11,55.256,17.9,47.58,8.466-3.86,17.326-6.486,25.7-10.485,3.371-1.61,7.075-7.733,10.372-11.9-9.082,1.5-20.65,1.415-25.156-16.934-.165-.669-.3-1.349-.417-2.042-9.412-3.424-19.2-14.834-28.4-6.225" transform="translate(27.283 693.707)" fill="#fff"/>
          <path id="Path_5" data-name="Path 5" d="M13.8,171.615c13.847-6.029,9.567-17.48,18.177-33.182,9.044-16.493,12-8.018,16.894-33.888,2.016-10.676,4.739-20.125,8.561-22.865-.853-4.036-2.073-7.444-3.824-9.673-3.926-4.994-5.732-2.075-6.107-13.257-.485-14.582,3.8-33.619-1.5-46.39C43.045,5.234,40.727,1.525,38.626,0c-2.01,8.895-8.665,9.152-12.8,18.34-6.583,14.639.675,24.516-1.868,40.944C20.642,80.665,10.183,78.032,0,72.614V178.1c2.56-9.661,8.887-4.341,13.8-6.486" transform="translate(0 359.862)" fill="#fff"/>
          <path id="Path_6" data-name="Path 6" d="M66.258,99.743c6.95,1.553,15.111,9.258,18.221,19.706,1.313,0,2.611.082,3.86.2,13.393,1.292,26.1,9.6,39.251,13.611,14.175,4.317,28.693,25.082,42.9,14.875,20.695-14.863,12.949-34.548-3.168-42.387-22.2-10.8-22.675-16.131-30.924-47.242-7.274-27.43-21.2-32.412-37.794-36.293-.659-.151-1.323-.322-1.982-.51a35.449,35.449,0,0,1-5.438-2.034A17.568,17.568,0,0,1,87.9,24.328C76.4,35.885,63.054-.7,51.225,2.976,39.67,6.563,38.812,51.082,28.2,56.439,20.644,60.246,3.564,22.123,0,0V154.139c3.687-9.054,7.049-18.613,10.537-26.737,10.537-24.569,39.772-31.234,55.721-27.659" transform="translate(0.002 550.298)" fill="#fff"/>
          <path id="Path_7" data-name="Path 7" d="M111.743,30.406C96.6,46.5,70.353,74.253,53.9,51.922c-9.616-13.045-9.211-25.466-5.508-38.245A13.922,13.922,0,0,0,37.9,15.527C27,21.98,17.6,37.185,8.574,49.994-23.665,95.76,44.365,115.38,58.747,115.886c15.371.538,31.395,27.94,43.566,11.524,8.241-11.116,8.371-19.2,20.089-11.553,5.605,3.653,20.364,30.345,26.01,22.192,5.349-7.725-1.448-56.1.866-69.426,1.482-8.528,3.663-14.219,6.331-17.879V0A38.5,38.5,0,0,0,142.54,5.214c-9.586,6.229-21.891,15.735-30.8,25.193" transform="translate(226.506 727.22)" fill="#fff"/>
          <path id="Path_8" data-name="Path 8" d="M22.785,65.988C16.644,50.831,26.118,13.7,31.3.324,21.01-3.047,13.349,20.645,9.834,36.27,5.885,53.844,4.072,66.432,0,72.318H28.809c-2.742-1.806-5.023-3.856-6.024-6.331" transform="translate(233.84 1127.682)" fill="#fff"/>
          <path id="Path_9" data-name="Path 9" d="M1.247,12.9C1.063,8.744.6,4.411,0,0V40.43H5.713C2.42,34.458,1.832,26.065,1.247,12.9" transform="translate(0 1159.57)" fill="#fff"/>
          <path id="Path_10" data-name="Path 10" d="M140.743,29.122c-9.957,16.167-34.5,16.909-42.7,16.571-24.686-1.007-40.862-2.417-58.573-34.218C30.312-4.961,5.549-5.622.914,21.927c-2.543,15.116,1.065,33.586.718,45.506H184.547c-.656-.379-1.334-.795-2.037-1.239-14.5-9.221-27.958-24.092-41.766-37.071" transform="translate(32.342 1132.568)" fill="#fff"/>
          <path id="Path_11" data-name="Path 11" d="M16.8,156.353c11.1,1.455,15.172,18.956,25.65-1.1C66.428,109.351,34.551,40.259,43.618,0A12.671,12.671,0,0,0,39.6,1.887C23.163,13.02,34.669,75.533,27.082,100.5c-9.8,32.269-33.476,35.127-25.451,85.141.055.355.125.705.184,1.056.258-.689.521-1.406.794-2.185,5.078-14.451,3.278-29.587,14.192-28.16" transform="translate(27.218 889.524)" fill="#0f1e6b"/>
          <path id="Path_12" data-name="Path 12" d="M61.383,127.95c.184,3.306-5.713,26.391-6.439,30.626-4.6,26.831-3.608,44.054-19.572,55.265C32.209,216.063.125,217.094.065,218.231A40.411,40.411,0,0,0,9.59,246.766c15.284,18.678,13.273-5.063,25.546-9.433,9.2-3.286,27.278,28.519,36.633,34.361a46.984,46.984,0,0,0,9.965,5.006c-13.855-12.784-24.784-36.656-16.563-69.491,10.035-40.088,30.052-13.778,45.8-24.553,7.869-5.381,24.265-40.883,33.914-17.553,8.64,20.884-17.828,62.48-2.992,84.187,9.351,13.685,30.948-31.882,30.986-52.366.064-32.779-15.291-62.26,4.053-85.708,10.638-12.9,22.052.754,30.34-13.257,3.473-5.866,4.434-14.484,6.831-21.776-12.413-4.2-28.4-6.832-29.6-21.067-2.012-23.839,21.781-57.136-7.413-50.992-20.286,4.264-23.911,43.6-38.675,62.676-11.8,15.242-21.821,12.3-15.282-13.5,3.879-15.327,21.332-24.834,6.81-48.017-8.252-13.179-29.709.713-35.875,15.372C83.071,46.8,91.376,59.3,70.6,65.417c-8.784,2.589-17.118.2-25.355,8.956-3.5,3.726-5.984,9.808-8.419,15.715,10.391,8.9,23.212,13.746,24.557,37.862" transform="translate(74.271 870.261)" fill="#0f1e6b"/>
          <path id="Path_13" data-name="Path 13" d="M106.869,0H58.729a47.677,47.677,0,0,1-4,6.588C48.465,14.9,44.649,14.06,37.4,15.038,23.859,16.872,20.948,21.56,14.017,44.026,2.569,44.2-6.447,72.981,6,84.97,4.784,56.43,13.96,63.022,28.223,65c8.741,1.207,22.291-2.075,28.261,12.038,2.713-4.908,4.646-12.034,7.644-15.535,6.89-8.035,7.53-26.77,17.41-30.386,13.438-4.912,27.456,25.979,41.01,26.99,9.118.673,17.991-9.417,26.927-14.814a124.847,124.847,0,0,0-15.943-20.081C124.508,14.524,115.4,9.229,106.869,0" transform="translate(68.832)" fill="#0f1e6b"/>
          <path id="Path_14" data-name="Path 14" d="M36.811,169.334c15.767-15.768,34.59-29.249,51.119-42.159C105.589,113.381,124,140.559,138.508,114.5c6.422,8.785,16.256,9.539,21.7,17.48,6.511,9.49,5.817,31.792,15.5,34.964,10.886,3.571,26.827-31.271,32.123-46.341,7.09-20.166,7.25-42.326-4.849-56.17-11.511-13.171-23.316-.273-35.238,2.218-11.242,2.344-22.476-8-33.421-4.814-8.434,2.45-14.357,18.246-22.8,18.238-6.02,0-10.511-12.4-16.39-11.121-1.351.293-2.893,1.887-4.536,3.958-3.3,4.162-7,10.285-10.372,11.9-8.379,4-17.239,6.624-25.7,10.485-16.786,7.676-40.65-26.277-17.9-47.58,9.194-8.61,18.986,2.8,28.4,6.225C70,55.756,74.878,55.34,79.5,48.549c6.749-9.918,7.405-19.771,4.978-27.944C81.368,10.153,73.207,2.452,66.258.9,50.308-2.676,21.074,3.985,10.537,28.558,7.049,36.682,3.687,46.242,0,55.291V174.54c12.7,20.937,19.575,12.03,36.811-5.206" transform="translate(0.002 649.141)" fill="#6800f2"/>
          <path id="Path_15" data-name="Path 15" d="M75.634,4.356a42.774,42.774,0,0,0-4.8,12.519c-9.067,40.259,22.81,109.351-1.165,155.252-10.48,20.06-14.55,2.56-25.652,1.1-10.914-1.427-9.112,13.709-14.192,28.16-.273.775-.536,1.5-.794,2.185-9.6,25.645-10.393-4.2-21.806-8.047C4.476,194.613,2.037,197.385,0,202V286.92c.6,4.411,1.063,8.748,1.247,12.9.584,13.163,1.173,21.56,4.466,27.528H33.974c.347-11.92-3.261-30.39-.718-45.506,4.637-27.549,29.4-26.888,38.552-10.452,17.713,31.8,33.887,33.211,58.573,34.218,8.208.338,32.748-.4,42.7-16.571,13.808,12.979,27.265,27.85,41.766,37.071.7.444,1.381.86,2.037,1.239h16.953c4.072-5.882,5.883-18.474,9.832-36.044,3.517-15.625,11.178-39.318,21.463-35.95-5.177,13.379-14.653,50.511-8.51,65.668,1,2.474,3.28,4.525,6.022,6.327h76.532c-.777-1.7-1.512-3.241-2.181-4.606-7.45-15.14-37.936-38.05-40.708-56.683-.659-4.427.5-9.466,2.715-14.569-6.137-10.574-9.573-25.087-8.227-46.614.241-3.893,3.625-4.684,4.028-9.865.866-11.092-3.462-22.567-2.41-33.9,1.819-19.6,9.436-18.695,14.518-31.593,13.878,16.909,30.916,42.236,47.693,45.245,13.228,2.368,27.949-11.055,22.685-40.463-7.187-40.133-19.545-15.906-32.032-22.274-12.733-6.494-18.59-41.042-32.043-49.223-6.1-3.714-13.861-4.378-19.64,1.508a23.869,23.869,0,0,0-5.2,9.482c-2.395,7.293-3.358,15.91-6.829,21.776-8.29,14.011-19.7.359-30.342,13.257-19.344,23.452-3.989,52.929-4.051,85.708-.042,20.488-21.635,66.051-30.986,52.366-14.838-21.7,11.63-63.3,2.99-84.183-9.648-23.334-26.046,12.168-33.912,17.549-15.752,10.778-35.772-15.531-45.8,24.557-8.22,32.832,2.708,56.7,16.561,69.491a46.859,46.859,0,0,1-9.963-5.01c-9.357-5.838-27.437-37.642-36.633-34.361-12.275,4.374-10.262,28.115-25.548,9.437a40.4,40.4,0,0,1-9.523-28.535c.059-1.137,32.14-2.169,35.3-4.39,15.966-11.21,14.969-28.437,19.572-55.269.726-4.235,6.626-27.32,6.439-30.626C134.311,101.445,121.487,96.6,111.1,87.7c-8.428-7.215-15.255-17.1-13.042-42.094,2.035-22.991,14.255-21.4,1.885-39.456C95.607-.165,79.977-2.961,75.634,4.356" transform="translate(0 872.649)" fill="#6800f2"/>
          <path id="Path_16" data-name="Path 16" d="M.377,47.825c3.06,18.34,20.976,7.676,26.914,3.669C30.065,49.623,50.686,37.887,51.96,34.1,55.41,23.856,45.8,2.516,40.445.371,31.888-3.045,26.923,18.059,19.88,24.655,14.535,29.661-2.759,29.041.377,47.825" transform="translate(108.473 817.2)" fill="#0f1e6b"/>
          <path id="Path_17" data-name="Path 17" d="M50.107,85.314c10.3-14.957,5-48.885-3.581-68.081-2.2-4.928-4.62-8.9-7.049-11.316-21.6-21.458-12.784,21.834-27.589,28.7C7.8,36.515,3.737,31.852,0,27.221v53.65c2.689,1.627,5.493,3.445,8.373,5.263,13.885,8.736,29.455,17.023,41.735-.819" transform="translate(0.002 175.245)" fill="#0f1e6b"/>
          <path id="Path_18" data-name="Path 18" d="M28.2,165.994c10.615-5.352,11.473-49.875,23.028-53.463C63.054,108.854,76.4,145.441,87.9,133.884a17.52,17.52,0,0,0,3.284-4.659c6.037-12.2.991-32.612-5.857-39.827-8.6-9.05-24.663.514-22.423-27.243,1.817-22.563,19.022-23.876,7.365-49.407C64.968,1.146,60.778-1.606,57.428.8c-3.82,2.739-6.543,12.189-8.561,22.865-4.894,25.869-7.845,17.394-16.892,33.888-8.612,15.7-4.332,27.157-18.177,33.182C8.885,92.879,2.56,87.559,0,97.22v12.335c3.562,22.123,20.644,60.246,28.2,56.439" transform="translate(0.002 440.742)" fill="#0f1e6b"/>
          <path id="Path_19" data-name="Path 19" d="M148.712,135.208c-16.955,2.866-18.721-16.506-23.02-39.635-5.175-27.879-1.355-37.2-17.387-55.892-14.4-16.8-22.878-15.674-38.774-15.808-14.675-.122-19.659-5.9-33.3-13.106C29.4,7.154,11.873,7.941,0,0A59.1,59.1,0,0,0,1.838,12.531C9.916,46.48,37.029,33.757,49.341,37c9.847,2.589,14.6,16.8,23.579,23.908,7.831,6.2,16.428-.579,21.622,15.014,10.113,30.427-6.838,54.209-13.4,76.862-3.7,12.776-4.108,25.2,5.508,38.241,16.457,22.331,42.706-5.422,57.849-21.516,8.9-9.457,21.207-18.964,30.8-25.193a38.493,38.493,0,0,1,13.072-5.214V91.578A14.255,14.255,0,0,0,180.7,94.3c-12.7,10.2-18.118,38.567-31.985,40.907" transform="translate(193.757 588.119)" fill="#0f1e6b"/>
          <path id="Path_20" data-name="Path 20" d="M198.683,82.2c-11.621,6.286-23.606,3.037-35.5,1.781-10.1-1.068-25.1,1.741-10.937-18.144,5.372-7.55,14.689-3.208,21.014-10.159,7.778-8.544,12.432-24.581,17.01-38.739C192.96,8.618,194.315,3.587,195.717,0H46.642c8.532,9.229,17.639,14.524,26.664,23.22A124.663,124.663,0,0,1,89.249,43.3C99.483,58.913,109.34,79.854,108.11,98.19c-2.291,34.075-37.588,11.752-52.187,13.9-16.93,2.507-32.2,27.569-45.68,44.421-24.726,30.879.978,42.041,17.648,37.063,11.172-3.347,15.909-13.338,25.463-22.1,17-15.6,36.566-12.229,54.294-23.207,15.1-9.36,28.875-13.591,44.877-13.97,15.35-.371,35.388,6.726,49.73-6.942,12.5-11.907,24.563-38.086,27.68-65.358-7.64,1.818-19.327,13.746-31.215,20.183l-.038.02" transform="translate(129.056)" fill="#fff"/>
          <path id="Path_21" data-name="Path 21" d="M.08.929C.4.6.705.293,1,0,.673.208.341.408,0,.6c.028.11.051.22.08.33" transform="translate(36.477 158.521)" fill="#fff"/>
          <path id="Path_22" data-name="Path 22" d="M55.119,65C40.855,63.022,31.68,56.43,32.9,84.97,20.448,72.981,29.465,44.2,40.912,44.026,47.841,21.56,50.752,16.872,64.3,15.042c7.248-.982,11.064-.143,17.33-8.455a47.229,47.229,0,0,0,4-6.588H41.92c-.292,1.219-.608,2.466-.961,3.754q1.585.422,2.215,3.106C33.647,29.469,17.308,24.691,6.809,42.122c-8.61,14.3-7.28,34.707-5.478,58.742,1.849,24.72,11.242,36.863-.015,52.309,2.173-1.5,3.735-1.406,8.1-1.822,8.352-.791,7.015,2.3,15.147-7.211,4.053-4.745,7.67-2.548,9.859-10.892,1.038-3.966-2.132-13.212-.663-18.36,4.33-15.144,19.983-4.729,27.49-6.07,15.816-2.829,12.678-17.989,22.7-30.308-.182-.514-.375-1-.57-1.468C77.408,62.928,63.86,66.21,55.119,65" transform="translate(41.936)" fill="#fff"/>
          <path id="Path_23" data-name="Path 23" d="M23.96,94.285c2.543-16.432-4.716-26.309,1.868-40.944C29.959,44.153,36.614,43.9,38.624,35c.688-3.049.834-7.113.138-12.91C35.808-2.543,18.02-4.883,9.432,6.764,6.859,10.253,3.43,18.121,0,21.484v86.132c10.181,5.418,20.642,8.051,23.96-13.33" transform="translate(0.002 324.861)" fill="#6800f2"/>
          <path id="Path_24" data-name="Path 24" d="M148.376,46.9c-26.791-23.688-19.867-61.294-52.14-41.193C79.393,16.2,64.962,41.138,47.623,48.251,36.064,52.988-.9,20.576.017,61.544.288,73.684,5.152,80.83,11.773,85.257c11.875,7.945,29.4,7.158,36.235,10.766,13.639,7.211,18.622,12.988,33.3,13.11,15.9.13,24.373-.995,38.776,15.809,16.03,18.695,12.21,28.009,17.387,55.892,4.3,23.13,6.063,42.5,23.018,39.635,13.868-2.344,19.291-30.712,31.988-40.911a14.271,14.271,0,0,1,7.659-2.719V49.18c-17.319-3.432-35.424,12.164-51.759-2.279" transform="translate(181.981 502.862)" fill="#6800f2"/>
          <path id="Path_25" data-name="Path 25" d="M102.006,46.954c-6.4-25.5-20.381-8.923-31.848-17.451C56.587,19.409,56.913-4.764,38.127.829,19.467,6.381-11.445,63.085,4.35,101.725c11.041,27.015,38.143,6.861,53.233,10.509,13.612,3.29,20.237,23.5,32.5,27.581,14.835,4.937,16.409-.42,15.464-12.046-.474-5.829-1.58-13.236-1.967-21.715-.32-6.987-5.317-18.756-6.124-27.594-.572-6.221,2.7-13.946,4.231-21.206a23.2,23.2,0,0,0,.316-10.3" transform="translate(117.349 331.158)" fill="#6800f2"/>
          <path id="Path_26" data-name="Path 26" d="M38.684,1.8C30.637,6.887,26.949,13.7,18.33,16.52,10.171,19.174-6.333,30.449,2.557,53.013,8.42,67.892,25.343,56.906,33.231,56.5c9.216-.465,17.309-.567,23.611,13.889,4.193,9.62,2.524,30.357,12.362,28.519,11.928-2.23,2.359-16.93,1.618-27.394-.807-11.345,2.062-17.3,1.722-28.1C71.654,15.256,51.891-6.54,38.684,1.8" transform="translate(242.205 301.244)" fill="#6800f2"/>
          <path id="Path_27" data-name="Path 27" d="M69.544,30.194C54.8,39.2,45.66,7.607,30.145,15.519,23.989,18.662,9.184,33.688,2.9,48.168.682,53.271-.475,58.31.184,62.737,2.956,81.37,33.442,104.28,40.892,119.42c.669,1.37,1.4,2.911,2.181,4.61H86.008V0C77.758.934,70.9,5.948,69.544,30.194" transform="translate(296.108 1075.97)" fill="#0f1e6b"/>
          <path id="Path_28" data-name="Path 28" d="M43.265,100.864c-1.8-24.035-3.132-44.446,5.478-58.742,10.5-17.435,26.84-12.657,36.367-35.265q-.629-2.678-2.217-3.1c.356-1.292.669-2.54.961-3.754H0V162.7c13.328,3.053,27.509,1.545,36.475-3.575.341-.2.673-.4,1-.6a20.094,20.094,0,0,0,5.328-4.729c.159-.2.3-.412.447-.62,11.259-15.446,1.863-27.594.015-52.309" transform="translate(0.002)" fill="#6800f2"/>
          <path id="Path_29" data-name="Path 29" d="M49.267,0c-1.4,3.583-2.757,8.614-5.446,16.938-4.578,14.162-9.235,30.2-17.01,38.743-6.327,6.946-15.642,2.6-21.014,10.154-14.164,19.885.834,17.08,10.937,18.148,11.894,1.251,23.879,4.5,35.5-1.781l.038-.024C64.16,75.745,75.849,63.813,83.487,62c8.129-1.932,11.676,7.594,6.01,47.389-6.217,43.634-2.376,68.6,17.114,82.128V0Z" transform="translate(275.506)" fill="#ffa200"/>
        </g>
      </g>
    </g>
  </g>
</svg>
